# xmcd
#
# Track frame offsets:
#	150
#	11925
#	22825
#	37197
#	49810
#
# Disc length: 822 seconds
#
# Revision: 1
# Processed by: cddbd v1.5.1PL0 Copyright (c) Steve Scherf et al.
# Submitted via: CDex 1.50Beta5
#
DISCID=3a033405
DTITLE=TIROLEANTAPE CHAPTER 4 - RED GUITAR
DYEAR=1900
DGENRE=ROCK
TTITLE0=RED GUITAR
TTITLE1=ウィーツイーとモーリーのバラード
TTITLE2=HE`S GONNA BE INSIDE
TTITLE3=SHA-LA-LA-LA-LEE
TTITLE4=RED GUTER(INST)
EXTD=
EXTT0=
EXTT1=
EXTT2=
EXTT3=
EXTT4=
PLAYORDER=
